<?xml version="1.0" encoding="utf-8"?>
<svg xmlns="http://www.w3.org/2000/svg">
    <defs>
        <symbol id="general" viewBox="0 0 24 24" fill="none" >
            <path d="M19 9L19 17C19 18.8856 19 19.8284 18.4142 20.4142C17.8284 21 16.8856 21 15 21L14 21L10 21L9 21C7.11438 21 6.17157 21 5.58579 20.4142C5 19.8284 5 18.8856 5 17L5 9" stroke="currentColor" stroke-width="2" stroke-linejoin="round"/>
            <path d="M3 11L7.5 7L10.6713 4.18109C11.429 3.50752 12.571 3.50752 13.3287 4.18109L16.5 7L21 11" stroke="currentColor" stroke-width="2" stroke-linecap="round" stroke-linejoin="round"/>
            <path d="M10 21V17C10 15.8954 10.8954 15 12 15V15C13.1046 15 14 15.8954 14 17V21" stroke="currentColor" stroke-width="2" stroke-linecap="round" stroke-linejoin="round"/>
        </symbol>

        <symbol id="notes" viewBox="0 0 24 24" fill="none" >
            <path d="M20 14V7C20 5.34315 18.6569 4 17 4H7C5.34315 4 4 5.34315 4 7V17C4 18.6569 5.34315 20 7 20H13.5M20 14L13.5 20M20 14H15.5C14.3954 14 13.5 14.8954 13.5 16V20" stroke="currentColor" stroke-width="2" stroke-linecap="round" stroke-linejoin="round"/>
            <path d="M8 8H16" stroke="currentColor" stroke-width="2" stroke-linecap="round" stroke-linejoin="round"/>
            <path d="M8 12H12" stroke="currentColor" stroke-width="2" stroke-linecap="round" stroke-linejoin="round"/>
        </symbol>

        <symbol id="folders" viewBox="0 0 24 24" fill="none" >
            <path d="M3 8.2C3 7.07989 3 6.51984 3.21799 6.09202C3.40973 5.71569 3.71569 5.40973 4.09202 5.21799C4.51984 5 5.0799 5 6.2 5H9.67452C10.1637 5 10.4083 5 10.6385 5.05526C10.8425 5.10425 11.0376 5.18506 11.2166 5.29472C11.4184 5.4184 11.5914 5.59135 11.9373 5.93726L12.0627 6.06274C12.4086 6.40865 12.5816 6.5816 12.7834 6.70528C12.9624 6.81494 13.1575 6.89575 13.3615 6.94474C13.5917 7 13.8363 7 14.3255 7H17.8C18.9201 7 19.4802 7 19.908 7.21799C20.2843 7.40973 20.5903 7.71569 20.782 8.09202C21 8.51984 21 9.0799 21 10.2V15.8C21 16.9201 21 17.4802 20.782 17.908C20.5903 18.2843 20.2843 18.5903 19.908 18.782C19.4802 19 18.9201 19 17.8 19H6.2C5.07989 19 4.51984 19 4.09202 18.782C3.71569 18.5903 3.40973 18.2843 3.21799 17.908C3 17.4802 3 16.9201 3 15.8V8.2Z" stroke="currentColor" stroke-width="2" stroke-linecap="round" stroke-linejoin="round"/>
        </symbol>

        <symbol id="ToolFolder" viewBox="0 0 40 40" fill="none" >
            <path d="M8 8V2C8 0.89544 8.89544 0 10 0H22.8284L26.8284 4H38C39.1046 4 40 4.89544 40 6V26C40 27.1046 39.1046 28 38 28H32V34C32 35.1046 31.1046 36 30 36H2C0.89544 36 0 35.1046 0 34V10C0 8.89544 0.89544 8 2 8H8ZM8 12H4V32H28V28H8V12ZM12 4V24H36V8H25.1716L21.1716 4H12Z" fill="currentColor"/>
        </symbol>
        <symbol id="ToolColor" viewBox="0 0 40 40" fill="none" >
            <path d="M14 4V16.5454H10V4H6V22H34V4H14ZM36 26H4V30H36V26ZM2 22V2C2 0.89544 2.89544 0 4 0H36C37.1046 0 38 0.89544 38 2V22H40V32C40 33.1046 39.1046 34 38 34H22V40H18V34H2C0.89544 34 0 33.1046 0 32V22H2Z" fill="currentColor"/>
        </symbol>
        <symbol id="ToolAdd" viewBox="0 0 40 40" fill="none" >
            <path d="M18 18V10H22V18H30V22H22V30H18V22H10V18H18ZM20 40C8.9543 40 0 31.0456 0 20C0 8.9543 8.9543 0 20 0C31.0456 0 40 8.9543 40 20C40 31.0456 31.0456 40 20 40ZM20 36C28.8366 36 36 28.8366 36 20C36 11.1634 28.8366 4 20 4C11.1634 4 4 11.1634 4 20C4 28.8366 11.1634 36 20 36Z" fill="currentColor"/>
        </symbol>
        <symbol id="ToolDelete" viewBox="0 0 40 40" fill="none" >
            <path d="M4 12H36V38C36 39.1046 35.1046 40 34 40H6C4.89544 40 4 39.1046 4 38V12ZM8 16V36H32V16H8ZM14 20H18V32H14V20ZM22 20H26V32H22V20ZM10 6V2C10 0.89544 10.8954 0 12 0H28C29.1046 0 30 0.89544 30 2V6H40V10H0V6H10ZM14 4V6H26V4H14Z" fill="currentColor"/>
        </symbol>
        <symbol id="Arrow" viewBox="0 0 24 24" fill="none" >
            <path d="M0.00244141 24L25.507 48L35.0024 45.4957L12.1593 24L35.0024 2.5044L25.507 0L0.00244141 24Z" fill="currentColor" fill-opacity="1"/>
        </symbol>
        <symbol id="icon-profile" viewBox="0 0 24 24" fill="none"  xmlns:xlink="http://www.w3.org/1999/xlink">
            <path d="M14.3365 12.3466L14.0765 11.9195C13.9082 12.022 13.8158 12.2137 13.8405 12.4092C13.8651 12.6046 14.0022 12.7674 14.1907 12.8249L14.3365 12.3466ZM9.6634 12.3466L9.80923 12.8249C9.99769 12.7674 10.1348 12.6046 10.1595 12.4092C10.1841 12.2137 10.0917 12.022 9.92339 11.9195L9.6634 12.3466ZM4.06161 19.002L3.56544 18.9402L4.06161 19.002ZM19.9383 19.002L20.4345 18.9402L19.9383 19.002ZM16 8.5C16 9.94799 15.2309 11.2168 14.0765 11.9195L14.5965 12.7737C16.0365 11.8971 17 10.3113 17 8.5H16ZM12 4.5C14.2091 4.5 16 6.29086 16 8.5H17C17 5.73858 14.7614 3.5 12 3.5V4.5ZM7.99996 8.5C7.99996 6.29086 9.79082 4.5 12 4.5V3.5C9.23854 3.5 6.99996 5.73858 6.99996 8.5H7.99996ZM9.92339 11.9195C8.76904 11.2168 7.99996 9.948 7.99996 8.5H6.99996C6.99996 10.3113 7.96342 11.8971 9.40342 12.7737L9.92339 11.9195ZM9.51758 11.8683C6.36083 12.8309 3.98356 15.5804 3.56544 18.9402L4.55778 19.0637C4.92638 16.1018 7.02381 13.6742 9.80923 12.8249L9.51758 11.8683ZM3.56544 18.9402C3.45493 19.8282 4.19055 20.5 4.99996 20.5V19.5C4.70481 19.5 4.53188 19.2719 4.55778 19.0637L3.56544 18.9402ZM4.99996 20.5H19V19.5H4.99996V20.5ZM19 20.5C19.8094 20.5 20.545 19.8282 20.4345 18.9402L19.4421 19.0637C19.468 19.2719 19.2951 19.5 19 19.5V20.5ZM20.4345 18.9402C20.0164 15.5804 17.6391 12.8309 14.4823 11.8683L14.1907 12.8249C16.9761 13.6742 19.0735 16.1018 19.4421 19.0637L20.4345 18.9402Z" fill="currentColor"/>
        </symbol>
        <symbol id="ToolEdit" viewBox="0 -0.5 21 21"  xmlns:xlink="http://www.w3.org/1999/xlink">
                <g id="Page-1" stroke="none" stroke-width="1" fill="none" fill-rule="evenodd">
                    <g id="Dribbble-Light-Preview" transform="translate(-419.000000, -359.000000)" fill="currentColor">
                        <g id="icons" transform="translate(56.000000, 160.000000)">
                            <path d="M384,209.210475 L384,219 L363,219 L363,199.42095 L373.5,199.42095 L373.5,201.378855 L365.1,201.378855 L365.1,217.042095 L381.9,217.042095 L381.9,209.210475 L384,209.210475 Z M370.35,209.51395 L378.7731,201.64513 L380.4048,203.643172 L371.88195,212.147332 L370.35,212.147332 L370.35,209.51395 Z M368.25,214.105237 L372.7818,214.105237 L383.18415,203.64513 L378.8298,199 L368.25,208.687714 L368.25,214.105237 Z" id="edit_cover-[#1481]"></path>
                        </g>
                    </g>
                </g>
        </symbol>
        <symbol id="pointView" viewBox="0 0 46.484 46.484" xml:space="preserve" fill="currentColor">
            <path d="M3.749 37.402c.79.392 1.636.59 2.513.59a5.63 5.63 0 0 0 5.076-3.146c1.156-2.33.548-5.076-1.302-6.732l12.508-16.937q.635.15 
            1.3.151a5.62 5.62 0 0 0 4.034-1.696l7.713 5.886a6 6 0 0 0-.446.744c-1.188 2.392-.515 5.225 1.453 6.864l-3.841 12.106a5.5 
            5.5 0 0 0-.863-.074 5.63 5.63 0 0 0-5.075 3.146 5.67 5.67 0 0 0 2.557 7.59c.789.391 1.636.59 2.513.59a5.63 5.63 0 0 0 
            5.076-3.146c1.187-2.393.515-5.225-1.453-6.864l3.841-12.106c.284.045.571.074.864.074a5.63 5.63 0 0 0 5.075-3.146 5.67 5.67 0 0 
            0-5.071-8.18c-.787 0-1.542.163-2.232.458L29.35 6.981c.6-2.508-.58-5.195-2.986-6.39A5.6 5.6 0 0 0 23.85 0a5.63 5.63 0 0 0-5.076 
            3.147 5.67 5.67 0 0 0 1.12 6.567L7.299 26.768a5.7 5.7 0 0 0-1.03-.104 5.63 5.63 0 0 0-5.075 3.148 5.67 5.67 0 0 0 2.555 7.59m30.526 
            4.604a2.65 2.65 0 0 1-2.39 1.48 2.665 2.665 0 0 1 .007-5.327 2.663 2.663 0 0 1 2.383 3.847M41.4 16.394a2.667 2.667 0 0 1 1.202 3.568 
            2.65 2.65 0 0 1-2.389 1.48 2.667 2.667 0 0 1-2.384-3.846 2.65 2.65 0 0 1 2.39-1.48q.62 0 1.181.278M21.461 4.482a2.65 2.65 0 0 1 
            2.389-1.48 2.667 2.667 0 0 1 2.383 3.846 2.65 2.65 0 0 1-2.389 1.48 2.664 2.664 0 0 1-2.383-3.846M3.881 31.145a2.65 2.65 0 0 1 2.388-1.48 
            2.665 2.665 0 0 1 2.382 3.847c-.636 1.28-2.269 1.846-3.569 1.202a2.664 2.664 0 0 1-1.201-3.569"/>
        </symbol>
    </defs>
</svg>