<svg xmlns="http://www.w3.org/2000/svg" width="800" height="800" viewBox="0 0 46.484 46.484" xml:space="preserve">
<path d="M3.749 37.402c.79.392 1.636.59 2.513.59a5.63 5.63 0 0 0 5.076-3.146c1.156-2.33.548-5.076-1.302-6.732l12.508-16.937q.635.15 
1.3.151a5.62 5.62 0 0 0 4.034-1.696l7.713 5.886a6 6 0 0 0-.446.744c-1.188 2.392-.515 5.225 1.453 6.864l-3.841 12.106a5.5 
5.5 0 0 0-.863-.074 5.63 5.63 0 0 0-5.075 3.146 5.67 5.67 0 0 0 2.557 7.59c.789.391 1.636.59 2.513.59a5.63 5.63 0 0 0 
5.076-3.146c1.187-2.393.515-5.225-1.453-6.864l3.841-12.106c.284.045.571.074.864.074a5.63 5.63 0 0 0 5.075-3.146 5.67 5.67 0 0 
0-5.071-8.18c-.787 0-1.542.163-2.232.458L29.35 6.981c.6-2.508-.58-5.195-2.986-6.39A5.6 5.6 0 0 0 23.85 0a5.63 5.63 0 0 0-5.076 
3.147 5.67 5.67 0 0 0 1.12 6.567L7.299 26.768a5.7 5.7 0 0 0-1.03-.104 5.63 5.63 0 0 0-5.075 3.148 5.67 5.67 0 0 0 2.555 7.59m30.526 
4.604a2.65 2.65 0 0 1-2.39 1.48 2.665 2.665 0 0 1 .007-5.327 2.663 2.663 0 0 1 2.383 3.847M41.4 16.394a2.667 2.667 0 0 1 1.202 3.568 
2.65 2.65 0 0 1-2.389 1.48 2.667 2.667 0 0 1-2.384-3.846 2.65 2.65 0 0 1 2.39-1.48q.62 0 1.181.278M21.461 4.482a2.65 2.65 0 0 1 
2.389-1.48 2.667 2.667 0 0 1 2.383 3.846 2.65 2.65 0 0 1-2.389 1.48 2.664 2.664 0 0 1-2.383-3.846M3.881 31.145a2.65 2.65 0 0 1 2.388-1.48 
2.665 2.665 0 0 1 2.382 3.847c-.636 1.28-2.269 1.846-3.569 1.202a2.664 2.664 0 0 1-1.201-3.569"/>
</svg>