<?xml version="1.0" encoding="utf-8"?>
<svg>
    <defs>
        <symbol id="general" viewBox="0 0 24 24" fill="none" xmlns="http://www.w3.org/2000/svg">
            <path d="M19 9L19 17C19 18.8856 19 19.8284 18.4142 20.4142C17.8284 21 16.8856 21 15 21L14 21L10 21L9 21C7.11438 21 6.17157 21 5.58579 20.4142C5 19.8284 5 18.8856 5 17L5 9" stroke="#FFF" stroke-width="2" stroke-linejoin="round"/>
            <path d="M3 11L7.5 7L10.6713 4.18109C11.429 3.50752 12.571 3.50752 13.3287 4.18109L16.5 7L21 11" stroke="#FFF" stroke-width="2" stroke-linecap="round" stroke-linejoin="round"/>
            <path d="M10 21V17C10 15.8954 10.8954 15 12 15V15C13.1046 15 14 15.8954 14 17V21" stroke="#FFF" stroke-width="2" stroke-linecap="round" stroke-linejoin="round"/>
        </symbol>

        <symbol id="notes" viewBox="0 0 24 24" fill="none" xmlns="http://www.w3.org/2000/svg">
            <path d="M20 14V7C20 5.34315 18.6569 4 17 4H7C5.34315 4 4 5.34315 4 7V17C4 18.6569 5.34315 20 7 20H13.5M20 14L13.5 20M20 14H15.5C14.3954 14 13.5 14.8954 13.5 16V20" stroke="#FFF" stroke-width="2" stroke-linecap="round" stroke-linejoin="round"/>
            <path d="M8 8H16" stroke="#FFF" stroke-width="2" stroke-linecap="round" stroke-linejoin="round"/>
            <path d="M8 12H12" stroke="#FFF" stroke-width="2" stroke-linecap="round" stroke-linejoin="round"/>
        </symbol>

        <symbol id="folders" viewBox="0 0 24 24" fill="none" xmlns="http://www.w3.org/2000/svg">
            <path d="M3 8.2C3 7.07989 3 6.51984 3.21799 6.09202C3.40973 5.71569 3.71569 5.40973 4.09202 5.21799C4.51984 5 5.0799 5 6.2 5H9.67452C10.1637 5 10.4083 5 10.6385 5.05526C10.8425 5.10425 11.0376 5.18506 11.2166 5.29472C11.4184 5.4184 11.5914 5.59135 11.9373 5.93726L12.0627 6.06274C12.4086 6.40865 12.5816 6.5816 12.7834 6.70528C12.9624 6.81494 13.1575 6.89575 13.3615 6.94474C13.5917 7 13.8363 7 14.3255 7H17.8C18.9201 7 19.4802 7 19.908 7.21799C20.2843 7.40973 20.5903 7.71569 20.782 8.09202C21 8.51984 21 9.0799 21 10.2V15.8C21 16.9201 21 17.4802 20.782 17.908C20.5903 18.2843 20.2843 18.5903 19.908 18.782C19.4802 19 18.9201 19 17.8 19H6.2C5.07989 19 4.51984 19 4.09202 18.782C3.71569 18.5903 3.40973 18.2843 3.21799 17.908C3 17.4802 3 16.9201 3 15.8V8.2Z" stroke="#FFF" stroke-width="2" stroke-linecap="round" stroke-linejoin="round"/>
        </symbol>

        <symbol id="ToolFolder" viewBox="0 0 40 40" fill="none" xmlns="http://www.w3.org/2000/svg">
            <path d="M8 8V2C8 0.89544 8.89544 0 10 0H22.8284L26.8284 4H38C39.1046 4 40 4.89544 40 6V26C40 27.1046 39.1046 28 38 28H32V34C32 35.1046 31.1046 36 30 36H2C0.89544 36 0 35.1046 0 34V10C0 8.89544 0.89544 8 2 8H8ZM8 12H4V32H28V28H8V12ZM12 4V24H36V8H25.1716L21.1716 4H12Z" fill="currentColor"/>
        </symbol>
        <symbol id="ToolColor" viewBox="0 0 40 40" fill="none" xmlns="http://www.w3.org/2000/svg">
            <path d="M14 4V16.5454H10V4H6V22H34V4H14ZM36 26H4V30H36V26ZM2 22V2C2 0.89544 2.89544 0 4 0H36C37.1046 0 38 0.89544 38 2V22H40V32C40 33.1046 39.1046 34 38 34H22V40H18V34H2C0.89544 34 0 33.1046 0 32V22H2Z" fill="currentColor"/>
        </symbol>
        <symbol id="ToolAdd" viewBox="0 0 40 40" fill="none" xmlns="http://www.w3.org/2000/svg">
            <path d="M18 18V10H22V18H30V22H22V30H18V22H10V18H18ZM20 40C8.9543 40 0 31.0456 0 20C0 8.9543 8.9543 0 20 0C31.0456 0 40 8.9543 40 20C40 31.0456 31.0456 40 20 40ZM20 36C28.8366 36 36 28.8366 36 20C36 11.1634 28.8366 4 20 4C11.1634 4 4 11.1634 4 20C4 28.8366 11.1634 36 20 36Z" fill="currentColor"/>
        </symbol>
        <symbol id="ToolDelete" viewBox="0 0 40 40" fill="none" xmlns="http://www.w3.org/2000/svg">
            <path d="M4 12H36V38C36 39.1046 35.1046 40 34 40H6C4.89544 40 4 39.1046 4 38V12ZM8 16V36H32V16H8ZM14 20H18V32H14V20ZM22 20H26V32H22V20ZM10 6V2C10 0.89544 10.8954 0 12 0H28C29.1046 0 30 0.89544 30 2V6H40V10H0V6H10ZM14 4V6H26V4H14Z" fill="currentColor"/>
        </symbol>
        <symbol id="Arrow" viewBox="0 0 24 24" fill="none" xmlns="http://www.w3.org/2000/svg">
            <path d="M0.00244141 24L25.507 48L35.0024 45.4957L12.1593 24L35.0024 2.5044L25.507 0L0.00244141 24Z" fill="currentColor" fill-opacity="1"/>
        </symbol>
    </defs>
</svg>